<svg
   width="16"
   height="16"
   viewBox="0 0 16 16"
   xmlns:inkscape="http://www.inkscape.org/namespaces/inkscape"
   xmlns:sodipodi="http://sodipodi.sourceforge.net/DTD/sodipodi-0.dtd"
   xmlns="http://www.w3.org/2000/svg">
  <defs
     id="defs1" />
  <sodipodi:namedview
     id="namedview1"
     pagecolor="#ffffff"
     bordercolor="#000000"
     borderopacity="0.25"
     inkscape:showpageshadow="2"
     inkscape:pageopacity="0.0"
     inkscape:pagecheckerboard="0"
     inkscape:deskcolor="#d1d1d1"
     inkscape:zoom="32"
     inkscape:cx="6.140625"
     inkscape:cy="12.15625"
     inkscape:window-width="1920"
     inkscape:window-height="991"
     inkscape:window-x="-9"
     inkscape:window-y="-9"
     inkscape:window-maximized="1"
     inkscape:current-layer="g600" />
  <g
     inkscape:groupmode="layer"
     inkscape:label="Image"
     id="g1">
    <g
       id="g600"
       transform="matrix(1.3754531,0,0,1.3754531,-3.0621617,-2.9359117)">
      <path
         style="display:inline;fill:#ffffff;stroke-width:0.0226065"
         d="M 6.7203941,9.8196651 C 6.6601763,9.8098616 6.5984234,9.7793423 6.5548475,9.7378491 6.4741,9.6609608 6.3311627,9.4719028 6.3311627,9.4419893 c 0,-0.011271 0.060448,-0.048239 0.134329,-0.082151 C 6.6118959,9.2926368 6.7435668,9.1934863 6.7320976,9.1590786 6.7281177,9.147139 6.6134261,9.1357043 6.4772273,9.133668 6.2466697,9.1302207 6.2183044,9.1246746 6.0658888,9.0532385 5.8850668,8.9684887 5.7202438,8.813482 5.6615312,8.6729629 5.6016865,8.5297344 5.5879184,8.3390818 5.611614,7.9817392 5.6552033,7.3243892 5.7386602,7.0041684 5.9114154,6.8314131 6.1413575,6.6014711 6.5455657,6.5345902 6.9501272,6.6595466 c 0.076428,0.023606 0.2233461,0.099733 0.3264839,0.1691701 0.1031379,0.069437 0.1927708,0.1210021 0.1991843,0.1145886 0.00641,-0.00641 -0.013857,-0.057317 -0.045045,-0.1131191 L 7.3740441,6.728728 7.4378031,6.7147241 C 7.6075448,6.6774426 7.6680752,6.4947605 7.5622758,6.3390627 7.4212547,6.1315315 6.9831728,5.8869541 6.6454595,5.827212 L 6.5455871,5.8095444 6.7276237,5.7482534 C 7.0714946,5.6324736 7.433295,5.5732253 7.8815075,5.559294 8.142595,5.551174 8.3698557,5.556334 8.5058638,5.573451 c 0.2063451,0.025973 0.7218694,0.1489916 0.861097,0.2054822 0.067042,0.027202 0.066035,0.027892 -0.1015694,0.069619 -0.4227876,0.105258 -0.8802686,0.4445906 -0.8802686,0.6529317 0,0.086168 0.073099,0.1793302 0.1614882,0.2058123 l 0.08325,0.024942 -0.047628,0.098032 c -0.026195,0.053918 -0.041521,0.1041392 -0.034057,0.1116033 0.00746,0.00746 0.094535,-0.041877 0.1934907,-0.1096477 0.6063911,-0.4152901 1.3653283,-0.269404 1.5399693,0.2960196 0.08754,0.2834269 0.155391,1.0875552 0.113407,1.3440626 -0.03336,0.2037878 -0.08506,0.2994367 -0.236869,0.4381805 -0.1871144,0.1710127 -0.3254405,0.2184321 -0.6388653,0.2190086 -0.1867874,3.438e-4 -0.253928,0.00787 -0.2539237,0.028462 8.1e-6,0.039827 0.1957939,0.1785191 0.3159995,0.2238496 0.055863,0.021067 0.1050188,0.040796 0.1092346,0.043844 0.013228,0.00956 -0.1691908,0.2660553 -0.228079,0.3206925 -0.069324,0.06432 -0.2498978,0.093519 -0.5822543,0.094152 -0.2383185,4.537e-4 -0.238409,4.329e-4 -0.2878907,-0.066495 L 8.5428985,9.7070544 8.6676867,9.6272283 C 8.8789356,9.4920939 9.0035997,9.2296879 8.9504044,9.0321351 8.9250263,8.9378879 8.8284518,8.8026861 8.7865094,8.8026861 c -0.022289,0 -0.013137,0.1108526 0.020194,0.2445959 L 8.8198474,9.100024 8.7275244,9.052925 C 8.5936394,8.984621 8.4582907,8.99178 8.2647654,9.077401 8.16121,9.123216 8.0664308,9.148977 8.0014159,9.148977 c -0.065015,0 -0.159794,-0.02576 -0.2633495,-0.071576 C 7.5558916,8.996802 7.4080804,8.984678 7.2984968,9.041346 7.2607178,9.060882 7.2237988,9.070858 7.2164558,9.063515 7.2091158,9.056175 7.2162271,8.998959 7.2322668,8.9363763 7.2670638,8.800607 7.2529728,8.7769966 7.1787578,8.8467173 c -0.095286,0.089516 -0.1324887,0.196164 -0.1163451,0.3335209 0.024502,0.2084729 0.1413001,0.3725335 0.3355342,0.4713087 0.040178,0.020432 0.076485,0.040137 0.080681,0.04379 0.0042,0.00365 -0.015488,0.03791 -0.043744,0.076128 l -0.051374,0.069487 -0.2835355,-0.00283 C 6.9440299,9.8365726 6.7732188,9.8282651 6.7203941,9.8196651 Z M 7.0076131,7.9299828 C 7.4750752,7.8001761 7.5242388,7.5692169 7.1588683,7.2194214 7.0946726,7.1579622 6.979068,7.0765007 6.9019691,7.0383958 6.7683375,6.9723505 6.7514678,6.9695646 6.5408332,6.9787568 6.3677389,6.9863108 6.2984039,6.9995637 6.2207446,7.0399394 5.9915347,7.1591077 5.7675154,7.4431063 5.7670997,7.615044 5.7665408,7.8462512 6.1715232,8.0037696 6.6922985,7.9749011 6.7978179,7.9690518 6.9397094,7.9488386 7.0076131,7.9299828 Z m 2.9461935,-0.029551 c 0.1625444,-0.063195 0.3047084,-0.1942125 0.3047084,-0.2808175 0,-0.1630408 -0.248271,-0.4734872 -0.4627054,-0.5785822 -0.097985,-0.048023 -0.144081,-0.055311 -0.3498503,-0.055311 -0.2953699,0 -0.3945147,0.042169 -0.6153619,0.2617305 -0.3360959,0.3341391 -0.2944512,0.5340896 0.1413711,0.6787713 0.1040216,0.034532 0.1826679,0.040048 0.4852763,0.034036 0.3139397,-0.00624 0.3788344,-0.014057 0.4965618,-0.059827 z"
         id="path597" />
      <path
         style="display:inline;fill:#ffffff;stroke-width:0.0226065"
         d="M 7.3694282,10.564699 C 6.9997741,10.514167 6.5080304,10.302438 6.2886882,10.099365 6.1679273,9.987562 6.0119834,9.7463294 6.0414323,9.7168805 c 0.00535,-0.00535 0.077683,0.081012 0.1607481,0.191908 0.083065,0.1108965 0.1745174,0.2170215 0.2032283,0.2358335 0.1215086,0.07962 0.7894247,0.192891 1.1373569,0.192891 h 0.1397575 l 0.1533185,-0.169282 c 0.084325,-0.09311 0.1650889,-0.1692825 0.179475,-0.1692825 0.014386,0 0.083517,0.070995 0.1536239,0.1577635 0.076985,0.09528 0.1507808,0.163615 0.1863335,0.172539 0.1639942,0.04116 0.9954687,-0.06791 1.2141077,-0.159265 0.06556,-0.02739 0.1801874,-0.147663 0.3460953,-0.3631299 0.049669,-0.064507 0.051286,-0.064992 0.036764,-0.011046 -0.025492,0.094697 -0.1521519,0.2537799 -0.2932813,0.3683579 -0.1626418,0.132044 -0.4254654,0.261905 -0.6982767,0.345021 -0.1983414,0.06043 -0.2180642,0.06201 -0.8351266,0.06719 -0.3475933,0.0029 -0.6878509,-0.0023 -0.7561282,-0.01167 z"
         id="path598" />
      <path
         style="display:inline;fill:#ffffff;stroke-width:0.0226065"
         d="M 4.1881025,6.6265111 C 4.1862771,6.5946788 4.360989,6.2828154 4.4863318,6.0941673 4.655687,5.839278 4.8237848,5.6366326 5.1057221,5.3474797 5.3608198,5.0858533 5.4078403,5.0162562 5.3098254,5.0453774 5.2398378,5.0661714 5.6804149,4.6217476 5.9361704,4.4135637 6.1149961,4.2680003 6.457832,4.0402072 6.4980839,4.0402072 c 0.00797,0 -0.058401,0.068559 -0.1474933,0.1523542 -0.089092,0.083795 -0.2023245,0.2031389 -0.251627,0.2652091 -0.1199339,0.150993 -0.073785,0.1579254 0.1694877,0.02546 0.40969,-0.2230827 1.0307161,-0.421029 1.4786139,-0.4712943 0.5638299,-0.063276 1.2276091,0.087216 1.9417674,0.4402362 C 10.081097,4.6460747 10.08415,4.6111916 9.7067319,4.2476729 9.5753741,4.1211527 9.4765773,4.0176362 9.4871834,4.0176362 c 0.03419,0 0.3732154,0.2119838 0.5214586,0.3260546 0.1667,0.1282723 0.723864,0.662407 0.723864,0.6939441 0,0.01172 -0.02031,0.014862 -0.04514,0.00698 -0.02487,-0.00789 -0.04514,-0.00406 -0.04514,0.00855 0,0.012582 0.129534,0.1580027 0.287853,0.3231576 0.158319,0.1651549 0.329673,0.3510664 0.380785,0.4131366 0.172216,0.2091359 0.481573,0.7194189 0.453291,0.7477013 -0.0053,0.00531 -0.03801,-0.027516 -0.07266,-0.072948 C 11.344435,6.0091995 10.8076,5.5876387 10.170974,5.2701954 9.5787534,4.9748946 9.0442607,4.805919 8.4573224,4.7284385 8.1336034,4.6857049 7.9140335,4.6859155 7.579366,4.7292805 6.7368184,4.8384547 5.8583517,5.1783593 5.1955284,5.6516574 4.8066423,5.9293468 4.430124,6.2947837 4.2276018,6.5910967 c -0.021073,0.030833 -0.038848,0.046769 -0.039499,0.035414 z"
         id="path596" />
      <path
         style="display:inline;fill:#ffffff;stroke-width:0.0226065"
         d="m 8.2593844,11.789604 c 0.039502,-0.396856 0.082744,-0.751678 0.1047567,-0.859572 0.019033,-0.09329 0.034624,-0.120684 0.07336,-0.128895 0.027055,-0.0057 0.1101324,-0.02178 0.1846167,-0.03566 0.4258558,-0.07934 0.7951005,-0.253634 1.0664792,-0.50342 0.05276,-0.04856 0.095927,-0.07886 0.095927,-0.06733 0,0.0393 -0.342038,0.580466 -0.498143,0.788158 -0.298003,0.396483 -0.7087795,0.790797 -0.9542944,0.916049 l -0.088057,0.04492 z"
         id="path599" />
      <path
         style="display:inline;fill:#ffffff;stroke-width:0.0226065"
         d="M 7.5929947,11.846868 C 7.4274623,11.740169 7.0921791,11.420726 6.8853341,11.17264 6.6559767,10.897554 6.2408787,10.27076 6.2408787,10.199519 c 0,-0.01311 0.046959,0.0175 0.1043524,0.06802 0.3041026,0.267681 0.7143698,0.447066 1.1647473,0.509272 0.099879,0.0138 0.1080703,0.02006 0.1282484,0.09807 0.018885,0.07301 0.083441,0.551274 0.12626,0.93539 0.00827,0.07416 0.0056,0.129784 -0.00623,0.129784 -0.011383,0 -0.085751,-0.04193 -0.1652638,-0.09319 z"
         id="path600" />
      <g
         id="g585"
         transform="translate(-0.10622187,-0.07383945)">
        <path
           style="display:inline;fill:#aeaeae"
           d="M 7.8854246,13.514216 C 7.6162037,13.437458 7.0683897,13.19373 6.6777505,12.976909 5.7675197,12.471693 4.9692711,11.808414 4.3643818,11.054688 3.8748641,10.444721 3.5520703,9.779147 3.4285111,9.125 3.3946729,8.9458543 3.3800817,8.2574856 3.4057102,8.0493238 3.4727536,7.5047772 3.6567262,6.9322424 3.9361894,6.3984375 4.1713676,5.9492217 4.3646675,5.6453811 4.6966332,5.203125 4.9534424,4.8609949 5.0418591,4.7546909 5.3167213,4.4575884 5.9787571,3.7419845 6.7803429,3.1221011 7.4765625,2.7873369 7.8104348,2.6268006 7.8946366,2.6028932 8.125,2.6032258 c 0.1751664,2.53e-4 0.2072121,0.00477 0.3106767,0.043757 0.450039,0.1695955 1.0733606,0.5506688 1.5720963,0.9611154 0.367875,0.3027511 0.834327,0.7602998 1.140229,1.1184646 0.199373,0.2334354 0.518371,0.6572214 0.688046,0.9140625 0.49567,0.7503053 0.781842,1.3989627 0.934034,2.1171441 l 0.04968,0.2344184 -2.51e-4,0.484375 c -2.42e-4,0.467233 -0.0018,0.4916879 -0.04318,0.6910138 -0.132055,0.6356617 -0.387507,1.1843104 -0.816805,1.7542984 -0.410833,0.545471 -0.882686,1.009747 -1.480176,1.456404 -0.6361427,0.475553 -1.1756225,0.77768 -1.854348,1.0385 -0.3422462,0.131518 -0.5322431,0.15655 -0.7395754,0.09744 z m 0.00519,-1.518122 c -2.66e-5,-0.09715 -0.094171,-0.856933 -0.127297,-1.027344 -0.020953,-0.10779 -0.035082,-0.125 -0.1026209,-0.125 -0.082762,0 -0.3554774,-0.05898 -0.5077521,-0.109813 -0.267529,-0.08931 -0.5319851,-0.246864 -0.7392652,-0.440441 -0.092836,-0.0867 -0.1184668,-0.104113 -0.1095486,-0.07443 0.041657,0.138642 0.3819131,0.67332 0.6104373,0.959238 0.1607177,0.201081 0.4932388,0.546598 0.6205854,0.644838 0.1116888,0.08616 0.3081218,0.208109 0.3352209,0.208109 0.011137,0 0.020246,-0.01582 0.02024,-0.03516 z m 0.5434978,-0.0025 C 8.712,11.851575 9.0815175,11.49368 9.4390597,11.020248 9.6290322,10.7687 9.9575441,10.217961 9.9325356,10.192952 c -0.00539,-0.0054 -0.041018,0.02493 -0.07918,0.06738 -0.1488689,0.165578 -0.4146114,0.340947 -0.6801466,0.448844 -0.12713,0.05166 -0.4411056,0.130736 -0.5725459,0.144202 -0.071361,0.0073 -0.1061169,0.01824 -0.1158564,0.03644 -0.026764,0.05001 -0.062642,0.293147 -0.1025081,0.694677 -0.022105,0.222645 -0.040654,0.408973 -0.04122,0.414063 -0.00462,0.04157 0.00274,0.04117 0.093035,-0.005 z M 8.8805711,10.639126 C 9.072387,10.600489 9.3303431,10.515 9.4754834,10.441965 9.8013338,10.277996 10.047829,10.030384 10.088715,9.8259572 c 0.0145,-0.072477 -0.01679,-0.051911 -0.09244,0.060762 -0.07847,0.1168768 -0.2452598,0.3136638 -0.2844309,0.3355848 -0.03832,0.02145 -0.3597949,0.09951 -0.5255601,0.127629 -0.1637198,0.02777 -0.4712512,0.05569 -0.6175667,0.05607 -0.119661,3.1e-4 -0.1727556,-0.03266 -0.2772198,-0.172133 C 8.1707978,10.072718 8.1600522,10.0625 8.1112754,10.0625 c -0.032193,0 -0.053102,0.01235 -0.072734,0.04297 -0.061867,0.09648 -0.189236,0.241956 -0.2385023,0.272404 -0.048394,0.02991 -0.066926,0.03162 -0.2348829,0.02174 C 7.1833305,10.377146 6.8386151,10.323299 6.609375,10.250313 6.5204529,10.222002 6.4991485,10.20711 6.4381997,10.130656 6.3728436,10.048674 6.1984767,9.8197756 6.1359693,9.7339057 l -0.028093,-0.038593 0.00795,0.049685 c 0.00437,0.027327 0.030135,0.1025309 0.057247,0.1671206 0.071071,0.1693117 0.2376187,0.3313317 0.4753621,0.4624367 0.2014323,0.111082 0.4157127,0.188619 0.7226512,0.261491 0.079877,0.01896 0.2344004,0.02766 0.6367238,0.03585 0.6029734,0.01227 0.6597112,0.01014 0.8727586,-0.03277 z M 7.5528053,9.8528391 c 0.031113,-0.03797 0.05657,-0.073025 0.05657,-0.0779 0,-0.00488 -0.043077,-0.030609 -0.095726,-0.057187 C 7.3085532,9.6142205 7.1875537,9.4409172 7.1748741,9.2325376 c -0.0048,-0.078842 9.343e-4,-0.1196629 0.024133,-0.171875 0.036612,-0.082399 0.1079022,-0.1700376 0.1383191,-0.1700376 0.027242,0 0.027997,-0.00803 -0.0092,0.097807 -0.027799,0.079094 -0.04255,0.1990676 -0.024476,0.1990676 0.00373,0 0.042868,-0.022437 0.086982,-0.04986 0.060084,-0.03735 0.1035388,-0.051547 0.1731977,-0.056586 0.085647,-0.0062 0.1045782,-0.00101 0.2397334,0.065622 0.253601,0.1250318 0.3502118,0.1254738 0.6023493,0.00276 0.1932589,-0.094061 0.3067329,-0.094258 0.4444934,-7.712e-4 0.031478,0.021362 0.060436,0.038839 0.064352,0.038839 0.015884,0 0.00563,-0.1249497 -0.01615,-0.1967355 C 8.86979,8.8957719 8.869723,8.8906284 8.897298,8.8906284 c 0.034804,0 0.1154354,0.1082362 0.143439,0.1925473 0.03455,0.1040196 0.022729,0.2157898 -0.036124,0.3415552 -0.064249,0.1372978 -0.139049,0.2161878 -0.2704455,0.2852347 -0.1212462,0.063713 -0.1215992,0.065502 -0.03201,0.1622046 l 0.04804,0.051854 0.3475569,-0.00498 c 0.4494315,-0.00644 0.4502413,-0.00683 0.65725,-0.3169749 l 0.072668,-0.108873 -0.058367,-0.018164 C 9.6657411,9.442804 9.5683376,9.3923917 9.4705682,9.3204179 9.3623272,9.2407354 9.3434346,9.19373 9.4257813,9.2089864 9.7707357,9.2728962 10.091204,9.1883365 10.305551,8.9768482 10.544691,8.7408965 10.574661,8.4968557 10.47527,7.5948865 10.431823,7.2006037 10.373749,7.041055 10.218327,6.8889745 10.04165,6.716096 9.8267683,6.646746 9.5096458,6.6602576 9.3530801,6.6669284 9.2967556,6.6764859 9.1841994,6.7154815 9.023417,6.7711853 8.907367,6.8350599 8.777317,6.9394318 8.6372466,7.0518458 8.6195431,7.0375698 8.710978,6.8859358 c 0.030056,-0.049844 0.054647,-0.09379 0.054647,-0.097656 0,-0.00387 -0.024959,-0.00703 -0.055463,-0.00703 -0.030505,0 -0.076139,-0.010692 -0.1014092,-0.023759 -0.049885,-0.025796 -0.108959,-0.1253257 -0.1084092,-0.1826493 0.00179,-0.1870738 0.3793212,-0.4913704 0.7574693,-0.6105398 0.06875,-0.021666 0.1601563,-0.044466 0.203125,-0.050666 0.042969,-0.0062 0.087797,-0.016446 0.099618,-0.022767 C 9.6117517,5.8634902 9.0591408,5.7042979 8.7109375,5.6461165 8.5738454,5.6232098 8.4552673,5.6174619 8.125,5.6177143 7.746399,5.6180035 7.6899241,5.621657 7.4655764,5.6603743 7.3306277,5.6836634 7.1478152,5.719883 7.0593264,5.7408624 6.8790841,5.7835952 6.6365593,5.8714056 6.647936,5.8898136 c 0.00409,0.00662 0.045608,0.016517 0.092264,0.022 0.1184909,0.013926 0.3500059,0.092256 0.4938229,0.1670779 0.1546404,0.080453 0.3660406,0.2506887 0.4328881,0.3485954 0.037529,0.054965 0.051839,0.093276 0.051839,0.1387807 0,0.1184496 -0.098338,0.2149819 -0.2190022,0.2149819 h -0.050217 l 0.028344,0.042969 c 0.055458,0.084073 0.103709,0.1775309 0.095761,0.1854789 -0.00444,0.00444 -0.065729,-0.034681 -0.1362003,-0.086932 C 7.1942452,6.7424509 7.0030392,6.6727879 6.71875,6.6609237 6.2510119,6.6414035 5.9450351,6.8293121 5.8231469,7.2109375 5.7398967,7.4715892 5.6638921,8.315997 5.7014935,8.5625 c 0.037966,0.2488952 0.1900234,0.449682 0.4256756,0.562092 0.2059166,0.098226 0.415175,0.1305759 0.6080401,0.094 0.1086746,-0.02061 0.1306073,-0.00115 0.069998,0.062116 -0.046745,0.048792 -0.2402665,0.155308 -0.3403633,0.18734 -0.032227,0.010313 -0.058594,0.026368 -0.058594,0.035679 0,0.024021 0.1649721,0.2401924 0.2423702,0.3175906 0.038655,0.038655 0.08977,0.071539 0.126152,0.081157 0.033641,0.00889 0.2097324,0.016897 0.3913143,0.017785 l 0.3301491,0.00161 z M 6.3515625,8.0210008 C 6.1392003,7.97571 5.9457935,7.8728263 5.8975165,7.7794689 5.842574,7.6732219 5.9052546,7.5067385 6.0645176,7.3359035 6.1873417,7.204155 6.316921,7.1184235 6.457994,7.0755739 6.5986293,7.0328573 6.8229085,7.0407333 6.9527987,7.09295 c 0.2494338,0.1002739 0.5472964,0.4191912 0.5471429,0.5858183 -3.21e-5,0.034881 -0.013194,0.08496 -0.029249,0.1112875 -0.058492,0.095918 -0.2499498,0.1886827 -0.483786,0.2344019 -0.1485283,0.02904 -0.4917265,0.027173 -0.6353442,-0.00346 z m 2.8899845,0.0099 C 9.1299009,8.0109451 8.9501593,7.9478883 8.8684799,7.900021 8.6547786,7.7747836 8.6789358,7.5895476 8.9438276,7.3222593 9.0809124,7.1839343 9.1976916,7.1131434 9.3600835,7.0699272 c 0.1231733,-0.032779 0.3041112,-0.029234 0.4257696,0.00834 0.2321719,0.071711 0.4740029,0.3051959 0.5527059,0.5336313 0.05733,0.1663893 -0.0842,0.3026003 -0.4070223,0.3917327 -0.1265994,0.034958 -0.5527537,0.051798 -0.6899897,0.02727 z m 2.67539,-1.3943664 C 11.662204,6.1306531 11.453737,5.8430357 11.050213,5.4407338 10.88391,5.2749342 10.750156,5.1323439 10.752982,5.1238665 c 0.0028,-0.00848 0.04602,0.0092 0.09598,0.03929 0.04996,0.030087 0.08857,0.048218 0.08578,0.040292 C 10.920854,5.1638767 10.599631,4.8255406 10.424863,4.6664003 10.192542,4.4548525 10.090043,4.373018 9.8984375,4.2461081 9.7646714,4.157508 9.4557182,3.9921985 9.4446262,4.0032905 c -0.00287,0.00287 0.049945,0.049552 0.1173693,0.1037355 0.1394275,0.1120461 0.424363,0.3879388 0.4913295,0.4757362 0.0534,0.070008 0.04178,0.092012 -0.02699,0.051107 C 9.7804191,4.4875902 9.4823096,4.3522311 9.1768126,4.2481368 8.6796399,4.0787312 8.1763936,4.0217078 7.7421875,4.0855777 7.2643349,4.1558678 6.6481732,4.3715928 6.2635811,4.6032539 c -0.1490689,0.089792 -0.1606205,0.068788 -0.0413,-0.075099 0.096446,-0.116303 0.2777986,-0.2941766 0.4143697,-0.4064206 0.053673,-0.044112 0.094665,-0.083128 0.091092,-0.0867 C 6.7181879,4.0254796 6.4180279,4.194225 6.2854797,4.2836676 6.0774877,4.4240192 5.8547866,4.6132632 5.608408,4.8590209 5.474673,4.9924188 5.3498728,5.1237353 5.3310742,5.1508355 l -0.034179,0.049273 0.085927,-0.04654 C 5.439307,5.1229749 5.46875,5.11393 5.46875,5.1271713 5.46875,5.1382502 5.3580078,5.2566347 5.2226562,5.390248 4.813557,5.7940932 4.5503177,6.1510929 4.3131552,6.6236943 4.1715197,6.9059361 4.1735081,6.9149177 4.3290111,6.6953125 4.6858185,6.1914202 5.1640312,5.7790344 5.8032983,5.4239638 6.4837752,5.0460039 7.4375217,4.78125 8.1186036,4.78125 c 0.2615888,0 0.4494098,0.019874 0.7407714,0.078383 0.5034436,0.1010976 0.9053428,0.2402429 1.398438,0.4841662 0.766439,0.3791409 1.324694,0.853715 1.703494,1.448144 0.03387,0.053147 0.06471,0.093493 0.06855,0.089659 0.0038,-0.00383 -0.04698,-0.114115 -0.11292,-0.2450678 z"
           id="path586"
           inkscape:label="path586" />
        <path
           style="display:inline;fill:#070707"
           d="M 7.9453125,13.505536 C 7.8419399,13.478683 7.6013971,13.388629 7.3984375,13.300798 6.1836676,12.775104 5.0951423,11.948934 4.3361996,10.976618 4.0991445,10.672916 3.8734849,10.308393 3.7457991,10.022905 3.476578,9.4209633 3.3784307,8.8906674 3.4195367,8.2600888 3.4486009,7.8142332 3.5284917,7.4499142 3.6988883,6.9861852 3.7742132,6.7811906 4.0472548,6.2247184 4.1789417,6.0078125 4.39145,5.657783 4.7901303,5.1019097 5.0642531,4.7734375 5.2302883,4.5744831 5.8501225,3.9520479 6.0546875,3.7788469 c 0.500349,-0.4236352 0.9888209,-0.7523702 1.4375,-0.9674181 0.3463744,-0.1660141 0.3870203,-0.1775615 0.625,-0.1775615 0.1738949,0 0.21774,0.00528 0.3046875,0.036682 0.4832298,0.1745333 1.2235617,0.6461177 1.762774,1.12287 0.244328,0.2160263 0.694419,0.6621729 0.856436,0.8489307 0.27984,0.3225718 0.603186,0.7488041 0.811759,1.0700522 0.706308,1.0878693 1.018164,2.0849259 0.946579,3.0263701 -0.06158,0.8098654 -0.348311,1.5078997 -0.926688,2.2559857 -0.390174,0.504659 -0.818345,0.918159 -1.412951,1.364537 -0.5572139,0.418306 -1.017948,0.687121 -1.6007048,0.933929 -0.3986221,0.168824 -0.5400731,0.21091 -0.7262667,0.216086 -0.085937,0.0024 -0.1703125,6.91e-4 -0.1875,-0.0038 z M 7.96875,12.285053 c 0,-0.0065 -0.00695,-0.03604 -0.015438,-0.06565 C 7.944821,12.189796 7.9270733,12.056248 7.9138726,11.92263 7.8559482,11.336317 7.7937571,10.9215 7.749,10.822925 c -0.05768,-0.127036 -0.079392,-0.1198 0.3594529,-0.1198 0.2308197,0 0.3934643,0.0061 0.3989289,0.01493 0.00507,0.0082 -0.00771,0.05567 -0.028405,0.105469 -0.047556,0.114418 -0.08093,0.301918 -0.1120687,0.629603 -0.013474,0.141797 -0.038671,0.373828 -0.055992,0.515625 -0.017321,0.141797 -0.03284,0.271875 -0.034486,0.289063 -0.00253,0.02637 0.00522,0.03059 0.049612,0.02704 0.2666926,-0.02136 0.9711062,-0.534256 1.4043165,-1.02251 C 10.4361,10.466926 10.818458,9.5999363 10.907465,8.5932714 10.937201,8.25696 10.917388,7.104219 10.876723,6.8046875 10.816166,6.3586262 10.786695,6.2037973 10.755824,6.1695328 10.73973,6.151669 10.634801,6.0756942 10.522647,6.0006998 10.1882,5.7770628 9.6613384,5.526086 9.296875,5.4167882 8.605147,5.209348 8.0941819,5.1738746 7.4453125,5.2882447 6.8139011,5.3995376 6.0901031,5.7124519 5.5410144,6.1115158 5.4290421,6.1928945 5.4378488,6.1688843 5.3834454,6.5411061 5.315744,7.0043124 5.3046781,7.1960774 5.3051205,7.8984375 c 4.256e-4,0.6755645 0.00118,0.6920194 0.043423,0.9478264 0.1354279,0.8200793 0.4031139,1.4670321 0.8555812,2.0677991 0.3906991,0.518753 0.8800555,0.959017 1.3806188,1.242114 0.1691499,0.09566 0.3840061,0.167771 0.3840065,0.128876 z M 7.4375,10.364408 C 7.2314834,10.349371 6.9419381,10.30439 6.7526814,10.258022 6.5078458,10.198038 6.5344708,10.218502 6.3051831,9.9140625 6.1717283,9.7368661 6.0796047,9.582064 6.0477204,9.4814291 6.0344332,9.4394912 6.0113746,9.4131967 5.9630502,9.3848767 5.9265246,9.3634713 5.8677914,9.3146606 5.8325319,9.2764087 5.7604914,9.198254 5.6477698,9.0345219 5.6585694,9.0237222 c 0.00388,-0.00388 0.041861,0.018136 0.0844,0.048927 0.1150774,0.083296 0.282371,0.1588462 0.4138304,0.1868865 0.1154737,0.024631 0.3289854,0.023031 0.5619159,-0.00421 0.076403,-0.00894 0.083683,-0.00737 0.065825,0.014147 -0.026614,0.032068 -0.3249927,0.1836519 -0.3615013,0.1836519 -0.015723,0 -0.036647,0.00971 -0.046499,0.021581 -0.014141,0.017039 0.00229,0.049105 0.078075,0.1523438 0.1239721,0.1688872 0.1946094,0.2426618 0.271947,0.2840255 0.057295,0.030644 0.091206,0.033909 0.4072157,0.039204 l 0.3447157,0.00578 0.048509,-0.040817 C 7.5733856,9.87621 7.78125,9.5768491 7.78125,9.5490783 c 0,-0.00734 -0.047003,-0.024937 -0.1044511,-0.039114 -0.2164015,-0.053402 -0.2732167,-0.113184 -0.1744238,-0.1835307 0.082497,-0.058743 0.2222309,-0.060334 0.3623278,-0.00413 0.094846,0.038053 0.1332489,0.0448 0.2524846,0.044356 0.119196,-4.436e-4 0.1559943,-0.00723 0.2414838,-0.044515 0.086765,-0.037844 0.1166764,-0.043193 0.214051,-0.038275 0.1191418,0.00602 0.195031,0.042071 0.2059944,0.097868 0.00767,0.039052 -0.035782,0.065956 -0.181328,0.1122612 -0.071046,0.022603 -0.1333482,0.047851 -0.1384504,0.056107 -0.010789,0.017457 0.1781271,0.3014482 0.2376987,0.3573249 0.040295,0.037795 0.041154,0.037878 0.3945291,0.037728 0.3860232,-1.636e-4 0.4047365,-0.00382 0.5081206,-0.09929 0.068443,-0.063203 0.2637505,-0.3450416 0.2549674,-0.3679302 -0.00428,-0.011158 -0.031553,-0.024144 -0.060602,-0.028858 -0.075795,-0.0123 -0.2453257,-0.09589 -0.3092774,-0.1524955 L 9.4296877,9.24818 9.5078127,9.257 c 0.2089127,0.023574 0.4480735,0.027784 0.5418723,0.00954 0.115342,-0.022436 0.315531,-0.1135645 0.426868,-0.1943148 0.08817,-0.063944 0.10549,-0.052978 0.05248,0.033217 -0.05535,0.08999 -0.152602,0.1893022 -0.250452,0.2557503 -0.07498,0.05092 -0.09364,0.07354 -0.121019,0.1467123 -0.07546,0.20169 -0.2238551,0.4418759 -0.3700564,0.5989642 l -0.092189,0.09905 -0.2109375,0.05137 c -0.2694724,0.06563 -0.5094918,0.100258 -0.7801743,0.112571 -0.1922823,0.0087 -0.2201525,0.0067 -0.2641576,-0.01928 -0.040294,-0.0238 -0.1488631,-0.153513 -0.2817927,-0.336667 -0.01179,-0.016246 -0.030562,-0.029537 -0.041714,-0.029537 -0.011152,0 -0.069063,0.065193 -0.1286912,0.144874 -0.059628,0.07968 -0.1342655,0.167571 -0.1658612,0.195312 -0.055523,0.04875 -0.061745,0.05035 -0.1858091,0.04771 -0.070599,-0.0015 -0.1600032,-0.005 -0.1986751,-0.0079 z M 7.2593526,9.4179688 C 7.198311,9.3136028 7.1819,9.2147531 7.2097294,9.1190687 c 0.046216,-0.1589028 0.063535,-0.1522303 0.065349,0.025178 0.00108,0.105416 0.010378,0.1845556 0.027116,0.2307536 0.046099,0.1272364 0.021105,0.1523039 -0.042842,0.042969 z m 1.653307,0 c 0.042277,-0.1478263 0.049383,-0.3500864 0.015508,-0.4414063 -0.011338,-0.030565 -0.010869,-0.030615 0.021377,-0.00233 0.073264,0.064274 0.1034929,0.255872 0.057672,0.365538 -0.039785,0.095218 -0.1178999,0.1598167 -0.094557,0.078195 z M 6.5390625,8.0208388 C 6.2709126,7.9880662 6.0778094,7.9197395 5.975038,7.8212673 5.9149445,7.7636876 5.90625,7.7469942 5.90625,7.6891948 c 0,-0.2000002 0.2791505,-0.498405 0.5422719,-0.5796749 0.1330536,-0.041096 0.3270527,-0.042021 0.4550957,-0.00217 0.2570375,0.079999 0.5645765,0.3930133 0.5649858,0.5750444 1.741e-4,0.077457 -0.047307,0.1423079 -0.1460315,0.1994528 C 7.1428499,7.9858766 6.7798632,8.0502688 6.5390625,8.0208388 Z M 9.1472032,7.9774115 C 8.6896233,7.8591063 8.6365512,7.67193 8.9674199,7.3433463 9.0411983,7.2700773 9.1372451,7.1912071 9.1808572,7.1680792 9.4223452,7.0400157 9.747766,7.0495852 9.9614004,7.1910323 10.159394,7.3221233 10.344304,7.588548 10.321534,7.709924 10.29969,7.8263595 10.115454,7.9375764 9.8561275,7.9908732 9.6659816,8.029952 9.3254055,8.0234848 9.1472032,7.9774115 Z M 7.3956689,6.7162362 C 7.3683649,6.6961344 7.2941725,6.6394547 7.2307968,6.5902813 6.9952951,6.4075548 6.7211612,6.3125 6.4296875,6.3125 c -0.2077971,0 -0.3569962,0.033369 -0.5230143,0.1169744 -0.061889,0.031167 -0.122816,0.054512 -0.1353935,0.051877 -0.038047,-0.00797 0.063933,-0.1898321 0.1700721,-0.3032951 0.2743706,-0.293303 0.740104,-0.3312865 1.226764,-0.1000503 0.1600788,0.076061 0.2422938,0.1321544 0.3743018,0.2553757 0.1668569,0.1557507 0.1951383,0.2713416 0.090451,0.3696899 -0.057652,0.054161 -0.1728323,0.060553 -0.2371997,0.013165 z m 1.1995305,-0.00727 c -0.1031533,-0.092175 -0.07663,-0.2284094 0.07129,-0.366177 0.2637327,-0.245631 0.6026064,-0.3949192 0.9428853,-0.415381 0.2657061,-0.015978 0.4834723,0.061957 0.6527673,0.2336135 0.09946,0.1008491 0.206608,0.2619849 0.206608,0.3107135 0,0.036664 -0.0017,0.036365 -0.09789,-0.017635 C 10.260984,6.3924497 10.068139,6.3295591 9.9403918,6.3137196 9.7883189,6.2948639 9.5473824,6.3211126 9.3969393,6.3729257 9.2325846,6.4295301 9.1007434,6.5047787 8.9413648,6.6329459 8.8272416,6.72472 8.8028194,6.737632 8.7289352,6.7452575 c -0.075952,0.00784 -0.088014,0.00457 -0.1337358,-0.036289 z M 12.139917,7.0759138 C 12.051541,6.8132872 11.829637,6.3805096 11.632314,6.0859375 11.477385,5.8546537 11.34205,5.6884581 11.126032,5.464209 10.995369,5.3285676 10.95978,5.284058 10.997546,5.3035164 c 0.02873,0.014802 0.05606,0.023089 0.06073,0.018415 0.01762,-0.017614 -0.182365,-0.24553 -0.447572,-0.5100967 C 10.195804,4.3979371 9.9666178,4.2263503 9.5559433,4.0221591 9.2230345,3.8566337 9.2045261,3.8636243 9.4573882,4.0593834 9.6304302,4.1933478 9.9818604,4.5233479 9.9671492,4.5380591 9.9621716,4.5430367 9.8708471,4.5056749 9.7642058,4.455033 9.3913914,4.2779905 9.0733106,4.1674737 8.7198495,4.0921726 8.422262,4.0287747 8.0292363,4.0131835 7.75,4.0536989 7.2972562,4.119389 6.7343726,4.3058018 6.3476562,4.5181195 6.2853516,4.5523264 6.234375,4.5723214 6.234375,4.5625528 c 0,-0.031199 0.3294733,-0.3473456 0.5210594,-0.4999836 C 6.8572515,3.9814509 6.9329107,3.9125327 6.9235659,3.9094178 6.9004418,3.9017098 6.4920497,4.1143792 6.328125,4.2194926 6.0362745,4.4066359 5.638787,4.755777 5.368743,5.0621852 5.1423589,5.3190543 5.1016528,5.3865378 5.2227155,5.3042736 c 0.031282,-0.021257 0.061997,-0.038649 0.068255,-0.038649 0.00626,0 -0.083224,0.09668 -0.1988491,0.2148437 C 4.7522092,5.8278447 4.5082484,6.1718676 4.2830853,6.6213364 4.1683394,6.8503912 4.0579365,7.1191219 4.0671831,7.1468618 c 0.00304,0.00911 0.055331,-0.067671 0.1162122,-0.17062 C 4.309345,6.7632628 4.494314,6.5093593 4.6509317,6.3344632 5.0094166,5.9341407 5.68174,5.4766539 6.2719941,5.2314009 7.0605375,4.9037578 7.8505608,4.759909 8.4810846,4.8291658 c 0.7788813,0.085552 1.6717804,0.4208094 2.3720334,0.8906277 0.555751,0.3728684 0.913254,0.7613953 1.225917,1.3323009 0.04628,0.084511 0.08644,0.1467975 0.08923,0.1384138 0.0028,-0.00838 -0.01,-0.059951 -0.02835,-0.1145944 z"
           id="path585" />
      </g>
    </g>
  </g>
</svg>
